<svg data-v-423bf9ae="" xmlns="http://www.w3.org/2000/svg" viewBox="0 0 295 90" class="iconLeft"><!----><!----><!----><g data-v-423bf9ae="" id="da4c9f9a-44ab-4459-bd31-d340d246e6e2" fill="white" transform="matrix(4.55927038192749,0,0,4.55927038192749,105.53192901611328,-3.1914865970611572)"><path d="M4.61 14.52C6.10 14.52 7.20 13.66 7.70 12.39L7.43 12.28C6.96 13.50 5.99 14.24 4.61 14.24C2.56 14.24 1.32 12.77 1.32 9.76L1.32 9.17C1.32 6.16 2.56 4.69 4.61 4.69C5.88 4.69 6.86 5.39 7.36 6.54L7.63 6.41C7.10 5.22 6.03 4.41 4.61 4.41C2.30 4.41 0.98 6.10 0.98 9.46C0.98 12.82 2.30 14.52 4.61 14.52ZM12.40 14.52C14.22 14.52 15.39 13.62 15.39 11.86C15.39 10.71 14.91 9.66 12.91 9.28L11.93 9.10C10.71 8.88 9.66 8.40 9.66 6.87C9.66 5.40 10.65 4.69 12.31 4.69C13.57 4.69 14.41 5.11 14.97 5.92L15.22 5.74C14.69 4.96 13.78 4.41 12.33 4.41C10.53 4.41 9.35 5.21 9.35 6.87C9.35 8.02 9.88 9.03 11.84 9.39L12.82 9.58C14 9.80 15.08 10.25 15.08 11.89C15.08 13.43 14.10 14.24 12.40 14.24C10.91 14.24 10.07 13.64 9.38 12.74L9.13 12.92C9.83 13.85 10.78 14.52 12.40 14.52ZM17.67 17.15L17.96 17.15L17.96 13.26L18.00 13.26C18.30 13.87 19.05 14.52 20.30 14.52C22.16 14.52 23.27 13.27 23.27 10.81C23.27 8.34 22.16 7.10 20.30 7.10C19.05 7.10 18.30 7.74 18.00 8.36L17.96 8.36L17.96 7.27L17.67 7.27ZM20.30 14.25C19.07 14.25 17.96 13.48 17.96 12.35L17.96 9.27C17.96 8.13 19.07 7.36 20.30 7.36C21.99 7.36 22.95 8.55 22.95 10.47L22.95 11.14C22.95 13.06 21.99 14.25 20.30 14.25ZM27.06 14.35L27.06 14.08L25.87 14.08L25.87 3.99L25.58 3.99L25.58 13.94C25.58 14.22 25.70 14.35 25.98 14.35ZM34.61 14.35L34.61 14.08L33.42 14.08L33.42 9.42C33.42 7.92 32.65 7.10 31.11 7.10C29.79 7.10 29.11 7.67 28.71 8.58L28.97 8.69C29.36 7.77 30.04 7.36 31.11 7.36C32.42 7.36 33.12 8.01 33.12 9.46L33.12 10.50L31.14 10.50C29.11 10.50 28.48 11.35 28.48 12.53C28.48 13.80 29.30 14.52 30.76 14.52C32.06 14.52 32.73 13.94 33.08 13.27L33.12 13.27L33.12 13.94C33.12 14.22 33.25 14.35 33.53 14.35ZM30.76 14.25C29.61 14.25 28.80 13.72 28.80 12.74L28.80 12.32C28.80 11.38 29.48 10.75 31.15 10.75L33.12 10.75L33.12 12.28C33.12 13.59 32.02 14.25 30.76 14.25ZM36.65 14.35L36.65 9.28C36.65 7.99 37.72 7.36 38.88 7.36C40.26 7.36 41.05 8.13 41.05 9.86L41.05 14.35L41.34 14.35L41.34 9.80C41.34 8.04 40.49 7.10 38.91 7.10C37.63 7.10 36.95 7.70 36.69 8.33L36.65 8.33L36.65 7.27L36.36 7.27L36.36 14.35Z"></path></g><!----><g data-v-423bf9ae="" id="60952be3-d288-4871-aad7-a99c59648ea1" transform="matrix(1.03378164768219,0,0,1.03378164768219,-6.218568325042725,-6.218568325042725)" stroke="none" fill="white"><path d="M50 81.868c-17.571 0-31.867-14.296-31.867-31.868S32.429 18.133 50 18.133c17.572 0 31.868 14.296 31.868 31.867 0 17.572-14.296 31.868-31.868 31.868zm0-60.206c-15.625 0-28.338 12.712-28.338 28.338 0 15.626 12.713 28.338 28.338 28.338 15.626 0 28.338-12.712 28.338-28.338 0-15.626-12.712-28.338-28.338-28.338z"></path><path d="M51.395 54.224c-.24 0-.48-.048-.707-.147l-18.697-8.166a1.765 1.765 0 0 1 1.413-3.235l16.226 7.086V33.984a1.765 1.765 0 1 1 3.53 0V52.46a1.763 1.763 0 0 1-1.765 1.764z"></path><path d="M50.001 93.529c-3.104 0-6.215-.333-9.246-.988a1 1 0 1 1 .423-1.955 41.79 41.79 0 0 0 8.823.943c11.054 0 21.457-4.294 29.293-12.091 7.89-7.852 12.235-18.307 12.235-29.439 0-11.054-4.294-21.457-12.091-29.292C71.587 12.816 61.131 8.47 49.998 8.47c-11.053 0-21.456 4.294-29.291 12.091C12.816 28.413 8.47 38.868 8.47 50.002c0 11.053 4.294 21.456 12.091 29.292l.081.081a1 1 0 1 1-1.402 1.426l-.106-.106C10.971 72.491 6.47 61.588 6.47 50.002c0-11.67 4.555-22.629 12.826-30.858C27.509 10.971 38.412 6.47 49.998 6.47c11.669 0 22.628 4.555 30.858 12.826 8.172 8.213 12.673 19.117 12.673 30.703 0 11.669-4.555 22.628-12.825 30.857-8.213 8.172-19.116 12.673-30.703 12.673z"></path><path d="M21.551 83.176a.942.942 0 0 1-.175-.016l-7.709-1.37a1 1 0 0 1 .349-1.969l6.456 1.147-.43-6.809a1 1 0 0 1 1.996-.125l.51 8.078a.999.999 0 0 1-.997 1.064z"></path></g><!----></svg>