<svg data-v-423bf9ae="" xmlns="http://www.w3.org/2000/svg" viewBox="0 0 218.53879244367715 185" class="iconAbove"><!----><!----><!----><g data-v-423bf9ae="" id="40a7b33d-d22c-4475-842b-a03e7398d311" fill="white" transform="matrix(4.56620979309082,0,0,4.56620979309082,-1.5068479776382446,113.10652923583984)"><path d="M5.46 12.67L5.46 12.67Q3.28 12.67 1.81 11.20L1.81 11.20L1.81 11.20Q0.33 9.73 0.33 7.53L0.33 7.53L0.33 7.53Q0.34 5.37 1.81 3.89L1.81 3.89L1.81 3.89Q3.28 2.42 5.46 2.42L5.46 2.42L5.46 2.42Q7.65 2.42 9.22 3.79L9.22 3.79L7.85 5.28L7.85 5.28Q6.81 4.46 5.46 4.46L5.46 4.46L5.46 4.46Q4.07 4.47 3.23 5.33L3.23 5.33L3.23 5.33Q2.39 6.18 2.39 7.51L2.39 7.51L2.39 7.51Q2.39 8.94 3.24 9.78L3.24 9.78L3.24 9.78Q4.09 10.62 5.47 10.62L5.47 10.62L5.47 10.62Q6.85 10.62 7.85 9.81L7.85 9.81L9.22 11.31L9.22 11.31Q7.66 12.67 5.46 12.67L5.46 12.67ZM13.48 12.67L11.43 12.67L11.43 2.42L13.48 2.42L13.48 6.52L18.26 6.52L18.26 2.41L20.31 2.41L20.31 12.67L18.26 12.67L18.26 8.44L13.48 8.44L13.48 12.67ZM24.25 15.55L22.34 15.54L22.34 6.04L24.25 5.83L24.25 6.38L24.25 6.38Q25.02 5.83 25.76 5.83L25.76 5.83L25.76 5.83Q27.33 5.83 28.25 6.86L28.25 6.86L28.25 6.86Q29.18 7.88 29.18 9.25L29.18 9.25L29.18 9.25Q29.18 10.62 28.25 11.64L28.25 11.64L28.25 11.64Q27.33 12.67 25.76 12.67L25.76 12.67L25.76 12.67Q24.73 12.60 24.25 12.11L24.25 12.11L24.25 15.55ZM24.25 8.63L24.25 8.63L24.25 9.74L24.25 9.74Q24.39 10.89 25.69 11.09L25.69 11.09L25.69 11.09Q27.33 10.96 27.54 9.39L27.54 9.39L27.54 9.39Q27.47 7.47 25.69 7.40L25.69 7.40L25.69 7.40Q24.39 7.61 24.25 8.63ZM32.46 12.67L30.54 12.67L30.54 2.42L32.46 2.42L32.46 12.67ZM35.34 7.82L34.59 6.66L34.59 6.66Q35.89 5.84 37.60 5.84L37.60 5.84L37.60 5.84Q38.83 5.84 39.55 6.52L39.55 6.52L39.55 6.52Q40.26 7.21 40.26 8.57L40.26 8.57L40.26 12.67L38.35 12.67L38.35 12.13L38.35 12.13Q37.52 12.67 36.85 12.67L36.85 12.67L36.85 12.67Q35.48 12.67 34.79 12.09L34.79 12.09L34.79 12.09Q34.11 11.51 34.11 10.49L34.11 10.49L34.11 10.49Q34.11 9.53 34.76 8.78L34.76 8.78L34.76 8.78Q35.40 8.03 36.85 8.03L36.85 8.03L36.85 8.03Q37.51 8.03 38.35 8.44L38.35 8.44L38.35 8.23L38.35 8.23Q38.34 7.48 37.26 7.41L37.26 7.41L37.26 7.41Q36.03 7.41 35.34 7.82L35.34 7.82ZM38.35 10.62L38.35 10.62L38.35 9.85L38.35 9.85Q38.08 9.32 37.05 9.32L37.05 9.32L37.05 9.32Q35.82 9.46 35.75 10.28L35.75 10.28L35.75 10.28Q35.82 11.09 37.05 11.16L37.05 11.16L37.05 11.16Q38.08 11.16 38.35 10.62ZM43.89 8.33L43.89 8.33L43.89 12.67L41.97 12.67L41.97 6.04L43.89 5.83L43.89 6.45L43.89 6.45Q44.58 5.84 45.53 5.84L45.53 5.84L45.53 5.84Q46.83 5.84 47.51 6.62L47.51 6.62L47.51 6.62Q48.19 7.41 48.19 8.44L48.19 8.44L48.19 12.67L46.28 12.67L46.28 8.91L46.28 8.91Q46.28 8.23 45.94 7.85L45.94 7.85L45.94 7.85Q45.60 7.48 44.91 7.46L44.91 7.46L44.91 7.46Q44.31 7.50 43.89 8.33Z"></path></g><!----><g data-v-423bf9ae="" id="573987b8-fd8a-4332-a343-8e9e8fd154db" transform="matrix(1.1111111640930176,0,0,1.1111111640930176,54.27059555053711,0.4444417953491211)" stroke="none" fill="white"><path d="M79.454 27.048a43.297 43.297 0 0 0-3.246-1.299 43.306 43.306 0 0 0 3.649-1.191c9.122-3.47 17.182-10.075 14.937-15.982-.647-1.703-2.726-4.56-9.383-4.56-3.683 0-8.086.903-12.395 2.541-4.44 1.686-8.265 3.938-10.981 6.369V9.163C62.035 4.111 57.929 0 52.876 0c-5.055 0-9.168 4.111-9.168 9.163v18.565a9.075 9.075 0 0 0-3.795-.834 9.134 9.134 0 0 0-6.48 2.691 9.134 9.134 0 0 0-6.48-2.691c-3.975 0-7.357 2.549-8.623 6.097a8.994 8.994 0 0 0-4.382-1.139c-4.999 0-9.064 4.066-9.064 9.064v2.895h-.058v27.586C4.826 87.169 17.658 100 33.433 100c15.773 0 28.603-12.831 28.603-28.603V38.59c2.593 2.312 5.955 4.417 9.53 6.025 4.743 2.129 9.523 3.301 13.462 3.301 5.732 0 7.725-2.53 8.398-4.038.72-1.594 1.279-4.943-3.021-9.462-2.618-2.756-6.508-5.373-10.951-7.368zm-16.177-7.273c.983-2.19 5.047-5.693 11.645-8.199 3.72-1.414 7.443-2.191 10.489-2.191 2.953 0 4.235.755 4.365 1.097.391 1.025-3.072 5.729-11.825 9.059-3.717 1.411-7.44 2.188-10.487 2.188-2.955 0-4.236-.755-4.369-1.104-.042-.11-.021-.4.182-.85zm-6.609 7.12h-7.59v-3.622h7.59v3.622zM52.876 5.368a3.797 3.797 0 0 1 3.792 3.795v8.741h-7.59V9.163a3.8 3.8 0 0 1 3.798-3.795zM39.913 32.263a3.802 3.802 0 0 1 3.795 3.799v7.087c-2.842-.498-4.933-.593-5.138-.6-.638 0-1.496.003-2.452.082v-6.569a3.802 3.802 0 0 1 3.795-3.799zm-16.755 3.799a3.8 3.8 0 0 1 3.794-3.799 3.803 3.803 0 0 1 3.797 3.799v8.121c-2.055 1.267-3.65 3.521-3.65 7.53 0 3.094 1.556 4.953 3.65 6.173v4.762a3.802 3.802 0 0 1-3.797 3.795 3.799 3.799 0 0 1-3.794-3.795V36.062zm-12.905 4.855a3.699 3.699 0 0 1 3.695-3.696 3.697 3.697 0 0 1 3.689 3.696v17.092a3.694 3.694 0 0 1-3.689 3.69 3.696 3.696 0 0 1-3.695-3.69V40.917zm46.415 30.48c0 12.812-10.422 23.232-23.235 23.232-12.814 0-23.237-10.421-23.237-23.232v-5.153a8.974 8.974 0 0 0 3.752.823 9.01 9.01 0 0 0 4.445-1.174c1.315 3.452 4.651 5.917 8.56 5.917 5.054 0 9.166-4.111 9.166-9.163v-2.829c.417.1.829.195 1.225.286 2.096.479 4.473 1.024 5.329 1.879 1.75 1.751 1.673 8.032 1.073 11.725a2.687 2.687 0 0 0 2.652 3.12 2.687 2.687 0 0 0 2.646-2.251c.325-1.98 1.731-12.083-2.576-16.39-1.946-1.946-4.985-2.644-7.926-3.317-4.282-.979-6.073-1.637-6.073-3.157 0-3.086 1.14-3.796 5.993-3.8.185.009 18.208 1.014 18.208 10.831v12.653zm0-23.142c-1.721-1.331-3.932-2.553-6.831-3.555a28.013 28.013 0 0 0-.76-.248v-12.19h7.59V48.255zm31.862-6.574c-.128.282-1.15.868-3.503.868-3.148 0-7.256-1.032-11.263-2.83-8.543-3.84-11.723-8.736-11.271-9.734.124-.284 1.147-.869 3.498-.869 3.153 0 7.258 1.031 11.265 2.83 3.766 1.691 7.141 3.94 9.261 6.171 1.836 1.931 2.153 3.254 2.013 3.564z"></path></g><!----></svg>