<svg data-v-423bf9ae="" xmlns="http://www.w3.org/2000/svg" viewBox="0 0 295 90" class="iconLeft"><!----><!----><!----><g data-v-423bf9ae="" id="36a83f5d-838a-481b-a132-9579c7aaf239" fill="white" transform="matrix(4.285714577655423,0,0,4.285714577655423,106.51915785025527,2.9999996253421912)"><path d="M5.82 14.17C6.72 14.17 7.48 13.99 8.13 13.65L8.13 12.15C7.57 12.60 6.83 12.88 5.84 12.88C3.64 12.88 2.17 11.12 2.17 9.10C2.17 7.08 3.64 5.32 5.84 5.32C6.83 5.32 7.57 5.60 8.13 6.05L8.13 4.55C7.48 4.21 6.72 4.03 5.82 4.03C2.77 4.03 0.81 6.38 0.81 9.10C0.81 11.82 2.77 14.17 5.82 14.17ZM12.43 14.14C14.34 14.14 15.47 12.95 15.48 11.48C15.53 8.18 10.91 8.72 10.92 6.59C10.92 5.87 11.54 5.33 12.43 5.33C13.20 5.33 13.90 5.82 14.38 6.36L15.25 5.46C14.64 4.73 13.65 4.06 12.40 4.06C10.77 4.06 9.58 5.17 9.56 6.58C9.56 9.79 14.14 9.11 14.14 11.47C14.14 12.25 13.50 12.85 12.52 12.85C11.63 12.85 10.81 12.31 10.26 11.52L9.30 12.43C9.93 13.40 11.10 14.14 12.43 14.14ZM20.82 6.90C19.78 6.90 18.97 7.39 18.42 8.12L18.42 7L17.11 7L17.11 16.80L18.42 16.80L18.42 12.88C18.97 13.61 19.78 14.10 20.82 14.10C22.76 14.10 24.09 12.52 24.09 10.50C24.09 8.48 22.76 6.90 20.82 6.90ZM20.59 12.81C19.33 12.81 18.42 11.73 18.42 10.50C18.42 9.27 19.33 8.18 20.59 8.18C21.85 8.18 22.74 9.21 22.74 10.50C22.74 11.77 21.85 12.81 20.59 12.81ZM25.75 14L27.06 14L27.06 2.80L25.75 2.80ZM34.38 7L34.38 8.12C33.84 7.39 33.03 6.90 31.99 6.90C30.04 6.90 28.71 8.48 28.71 10.50C28.71 12.52 30.04 14.10 31.99 14.10C33.03 14.10 33.84 13.61 34.38 12.88L34.38 14L35.70 14L35.70 7ZM32.21 12.82C30.95 12.82 30.07 11.79 30.07 10.50C30.07 9.23 30.95 8.19 32.21 8.19C33.47 8.19 34.38 9.27 34.38 10.50C34.38 11.73 33.47 12.82 32.21 12.82ZM41.22 6.86C40.25 6.86 39.51 7.32 39.10 7.98L39.10 7L37.79 7L37.79 14L39.10 14L39.10 10.18C39.10 8.79 39.83 8.06 40.81 8.06C41.80 8.06 42.52 8.79 42.52 10.18L42.52 14L43.83 14L43.83 9.98C43.83 7.90 42.59 6.86 41.22 6.86Z"></path></g><!----><g data-v-423bf9ae="" id="2289b847-47b6-4e9f-9c7e-626687adc419" transform="matrix(3.3953869546718023,0,0,3.3953869546718023,-8.577329118248393,-8.579304763740325)" stroke="none" fill="white"><path d="M17.501 16l-.5-7.876a1 1 0 0 0-2 0l-.466 7.343-3.004 1.96a.999.999 0 0 0-.365 1.365.998.998 0 0 0 1.365.367l3.305-1.677c.054.008.108.018.165.018.829.001 1.5-.67 1.5-1.5zm1.938 5.956a.997.997 0 0 0-.366 1.367.999.999 0 1 0 1.731-1 1 1 0 0 0-1.365-.367zm.999-13.643a.985.985 0 0 0-1.354.366 1.017 1.017 0 0 0 .355 1.367 1 1 0 1 0 .999-1.733zm1.885 12.493a1 1 0 0 0 1.364-.365.995.995 0 0 0-.364-1.354 1.017 1.017 0 0 0-1.367.354 1 1 0 0 0 .367 1.365zm.999-7.878a1 1 0 1 0-1.366-.365 1 1 0 0 0 1.366.365zM24.878 16a1.001 1.001 0 1 0-2.002.002A1.001 1.001 0 0 0 24.878 16zm-14.832-3.438a1 1 0 1 0-1.732-1 1 1 0 0 0 1.732 1zM7.125 16a1 1 0 1 0 2 0 1 1 0 0 0-2 0zm2.555 4.806a1 1 0 0 0 .367-1.367.989.989 0 0 0-1.367-.354.988.988 0 0 0-.365 1.355 1 1 0 0 0 1.365.366zm2.882-10.761a1 1 0 1 0-.999-1.732 1 1 0 0 0 .999 1.732zm2.439 13.833a1 1 0 1 0 2 0 1 1 0 0 0-2 0zm-3.805-1.555a1 1 0 0 0 .366 1.365 1.01 1.01 0 0 0 1.365-.365 1 1 0 1 0-1.731-1zm17.978-7.736l-3.27-1.186c.291 1.105.41 2.274.309 3.478-.492 5.639-5.449 9.809-11.09 9.333a10.262 10.262 0 0 1-9.333-11.09c.494-5.641 5.449-9.812 11.089-9.335a10.167 10.167 0 0 1 6.193 2.834l-1.637 1.377 7.021 2.548-1.312-7.364-1.764 1.491c-2.133-2.151-4.993-3.597-8.25-3.877C9.847 2.17 3.426 7.573 2.797 14.865c-.625 7.291 4.777 13.71 12.066 14.339 7.293.625 13.713-4.776 14.342-12.066.074-.867.057-1.719-.031-2.551z"></path></g><!----></svg>